<?xml version="1.0" encoding="UTF-8"?>
<svg id="_레이어_2" data-name="레이어 2" xmlns="http://www.w3.org/2000/svg" viewBox="0 0 21.55 34.88">
  <defs>
    <style>
      .cls-1 {
        fill: #fff;
        stroke: #121f41;
        stroke-linejoin: round;
        stroke-width: 2px;
      }
    </style>
  </defs>
  <g id="Layer_2" data-name="Layer 2">
    <g>
      <rect class="cls-1" x="1" y="1" width="19.55" height="32.88"/>
      <line class="cls-1" x1="4.73" y1="13.47" x2="7.34" y2="13.47"/>
      <line class="cls-1" x1="9.47" y1="13.47" x2="12.08" y2="13.47"/>
      <line class="cls-1" x1="14.21" y1="13.47" x2="16.82" y2="13.47"/>
      <line class="cls-1" x1="4.73" y1="17.44" x2="7.34" y2="17.44"/>
      <line class="cls-1" x1="9.47" y1="17.44" x2="12.08" y2="17.44"/>
      <line class="cls-1" x1="14.21" y1="17.44" x2="16.82" y2="17.44"/>
      <line class="cls-1" x1="4.73" y1="21.4" x2="7.34" y2="21.4"/>
      <line class="cls-1" x1="9.47" y1="21.4" x2="12.08" y2="21.4"/>
      <line class="cls-1" x1="14.21" y1="21.4" x2="16.82" y2="21.4"/>
      <line class="cls-1" x1="4.73" y1="5.55" x2="7.34" y2="5.55"/>
      <line class="cls-1" x1="9.47" y1="5.55" x2="12.08" y2="5.55"/>
      <line class="cls-1" x1="14.21" y1="5.55" x2="16.82" y2="5.55"/>
      <line class="cls-1" x1="4.73" y1="9.51" x2="7.34" y2="9.51"/>
      <line class="cls-1" x1="9.47" y1="9.51" x2="12.08" y2="9.51"/>
      <line class="cls-1" x1="14.21" y1="9.51" x2="16.82" y2="9.51"/>
      <rect class="cls-1" x="8.46" y="27.32" width="4.63" height="6.56"/>
    </g>
  </g>
</svg>