<?xml version="1.0" encoding="UTF-8"?>
<svg id="_레이어_2" data-name="레이어 2" xmlns="http://www.w3.org/2000/svg" viewBox="0 0 36.76 26.37">
  <defs>
    <style>
      .cls-1 {
        fill: #fff;
        stroke: #121f41;
        stroke-linejoin: round;
        stroke-width: 2px;
      }
    </style>
  </defs>
  <g id="Layer_2" data-name="Layer 2">
    <circle class="cls-1" cx="26.31" cy="6.04" r="5.04"/>
    <path class="cls-1" d="M35.76,22.41c0,.42-.02.82-.04,1.23h-18.81c-.03-.41-.05-.81-.05-1.23,0-2.37.47-4.59,1.3-6.49.07.01.15.01.22.01s.15,0,.22-.01c2.01-.05,3.84-.84,5.24-2.11.07.03.15.05.23.08.71.2,1.46.31,2.24.31,2.15,0,4.09-.83,5.55-2.19,2.36,2.34,3.9,6.12,3.9,10.4Z"/>
    <circle class="cls-1" cx="10.44" cy="6.04" r="5.04"/>
    <path class="cls-1" d="M19.89,22.41c0,.42-.01.82-.04,1.23H1.04c-.03-.41-.04-.81-.04-1.23,0-4.28,1.53-8.06,3.9-10.4,1.45,1.36,3.4,2.19,5.54,2.19.78,0,1.54-.11,2.25-.31.08-.03.15-.05.23-.08,1.4,1.27,3.22,2.06,5.24,2.11.07.01.15.01.22.01s.15,0,.22-.01c.82,1.9,1.29,4.12,1.29,6.49Z"/>
    <circle class="cls-1" cx="18.38" cy="7.77" r="5.04"/>
    <path class="cls-1" d="M27.83,24.14c0,.41-.02.82-.05,1.23H8.97c-.02-.41-.04-.82-.04-1.23,0-.17,0-.33.01-.5.11-3.98,1.56-7.49,3.75-9.75.04-.05.09-.1.14-.15.03.03.06.05.09.07,1.4,1.27,3.22,2.06,5.24,2.11.07.01.15.01.22.01s.15,0,.22-.01c2.01-.05,3.84-.84,5.24-2.11.03-.02.06-.04.09-.07.05.05.1.1.14.15,2.19,2.26,3.64,5.77,3.75,9.75.01.17.01.33.01.5Z"/>
  </g>
</svg>